{"asset":{"version":"2.0","generator":"Horizon"},"scene":0,"scenes":[{"nodes":[0]}],"nodes":[{"mesh":0}],"meshes":[{"primitives":[{"attributes":{"POSITION":0},"indices":1,"material":0}]}],"materials":[{"pbrMetallicRoughness":{"baseColorFactor":[0.12,0.75,0.82,1],"metallicFactor":0.55,"roughnessFactor":0.3},"doubleSided":true}],"buffers":[{"uri":"data:application/octet-stream;base64,","byteLength":768}],"bufferViews":[{"buffer":0,"byteOffset":0,"byteLength":444,"target":34962},{"buffer":0,"byteOffset":444,"byteLength":324,"target":34963}],"accessors":[{"bufferView":0,"componentType":5126,"count":37,"type":"VEC3","min":[-4,-4,-0.3],"max":[5.2,4,1.35]},{"bufferView":1,"componentType":5123,"count":162,"type":"SCALAR"}]}
